<svg xmlns="http://www.w3.org/2000/svg" id="svg3" width="780" height="780" enable-background="new 0 0 780 500" version="1.1" viewBox="0 0 780 780" xml:space="preserve"><g id="g3" transform="translate(0,140)"><rect id="rect1" width="780" height="780" x="0" y="-140" fill="#0079be" ry="0"/><path id="path1" fill="#fff" d="m 599.93,251.45 c 0,-99.415 -82.98,-168.13 -173.9,-168.1 h -78.242 c -92.003,-0.033 -167.73,68.705 -167.73,168.1 0,90.93 75.727,165.64 167.73,165.2 h 78.242 c 90.914,0.436 173.9,-74.294 173.9,-165.2 z"/><path id="path2" fill="#0079be" d="m 348.28,97.43 c -84.07,0.027 -152.19,68.308 -152.21,152.58 0.02,84.258 68.144,152.53 152.21,152.56 84.09,-0.027 152.23,-68.303 152.24,-152.56 C 500.509,165.738 432.371,97.46 348.28,97.43 Z"/><path id="path3" fill="#fff" d="m 252.07,249.6 c 0.08,-41.181 25.746,-76.297 61.94,-90.25 V 339.83 C 277.816,325.882 252.149,290.785 252.07,249.6 Z m 131,90.274 v -180.53 c 36.207,13.92 61.914,49.057 61.979,90.257 -0.065,41.212 -25.772,76.322 -61.979,90.269 z"/></g></svg>