<svg xmlns="http://www.w3.org/2000/svg" id="Layer_1" width="780" height="780" x="0" y="0" version="1.1" viewBox="0 0 780 780" xml:space="preserve"><style id="style1" type="text/css">.st0{fill:#fff}.st1{fill:#37a72e}.st2{fill:url(#Combined-Shape_4_)}</style><g id="g2" transform="translate(0,140)"><rect id="rect1" width="780" height="780" x="0" y="-140" class="st0"/><g id="Page-1"><g id="Artboard" transform="translate(-91,-154)"><g id="Group" transform="translate(91,154)"><path id="Combined-Shape" d="m 544.1,240.5 v 108 h 60 v -64 h 68 c 28.6,-0.2 52.9,-18.5 62.1,-44 z" class="st1"/><linearGradient id="Combined-Shape_4_" x1="362.405" x2="363.405" y1="275.431" y2="275.431" gradientTransform="matrix(201.7633,0,0,-79,-72583.844,21950.025)" gradientUnits="userSpaceOnUse"><stop offset="0" style="stop-color:#00a0e5" id="stop1"/><stop offset="1" style="stop-color:#0077c3" id="stop2"/></linearGradient><path id="Combined-Shape_1_" d="m 536.1,151.5 c 3.5,44.1 45.3,79 96.3,79 0.2,0 104.3,0 104.3,0 0.8,-4 1.2,-8.2 1.2,-12.5 0,-36.6 -29.5,-66.2 -66,-66.5 z" class="st2" style="fill:url(#Combined-Shape_4_)"/><path id="Combined-Shape_2_" d="m 447.3,229.4 v -0.1 0.1 c 0.7,-1.2 1.8,-1.9 3.2,-1.9 2,0 3.5,1.6 3.6,3.5 v 0 116.5 h 60 v -196 h -60 c -7.6,0.3 -16.2,5.8 -19.4,12.7 L 387,266.6 c -0.1,0.4 -0.3,0.8 -0.5,1.2 v 0 0 c -0.7,1 -1.9,1.7 -3.3,1.7 -2.2,0 -4,-1.8 -4,-4 v -114 h -60 v 196 h 60 v 0 c 7.5,-0.4 15.9,-5.9 19.1,-12.7 l 49,-105.1 c -0.1,-0.1 0,-0.2 0,-0.3 z" class="st1"/><path id="Combined-Shape_3_" d="M 223.3,232.8 188.2,347.5 H 145 L 110,232.7 c -0.3,-1.8 -1.9,-3.2 -3.9,-3.2 -2.2,0 -3.9,1.8 -3.9,3.9 0,0 0,0 0,0 v 114 h -60 v -196 H 93.7 109 c 11,0 22.6,8.6 25.8,19.1 L 164,266 c 1.5,4.8 3.8,4.7 5.3,0 l 29.2,-95.5 c 3.2,-10.6 14.8,-19.1 25.8,-19.1 h 15.3 51.5 v 196 h -60 v -114 c 0,0 0,0 0,-0.1 0,-2.2 -1.8,-3.9 -3.9,-3.9 -2,0.1 -3.6,1.5 -3.9,3.4 z" class="st1"/></g></g></g></g></svg>